<mxfile host="Electron" agent="Mozilla/5.0 (Windows NT 10.0; Win64; x64) AppleWebKit/537.36 (KHTML, like Gecko) draw.io/28.1.2 Chrome/138.0.7204.243 Electron/37.4.0 Safari/537.36" version="28.1.2">
  <diagram name="Page-1" id="w5c8ERlpFwUv5xIerBSc">
    <mxGraphModel dx="601" dy="421" grid="1" gridSize="10" guides="1" tooltips="1" connect="1" arrows="1" fold="1" page="1" pageScale="1" pageWidth="1100" pageHeight="850" math="0" shadow="0">
      <root>
        <mxCell id="0" />
        <mxCell id="1" parent="0" />
        <mxCell id="tIVWCYKLZqsYIikExzFE-32" style="edgeStyle=orthogonalEdgeStyle;rounded=0;orthogonalLoop=1;jettySize=auto;html=1;entryX=0;entryY=0.5;entryDx=0;entryDy=0;" parent="1" source="tIVWCYKLZqsYIikExzFE-28" target="tIVWCYKLZqsYIikExzFE-30" edge="1">
          <mxGeometry relative="1" as="geometry" />
        </mxCell>
        <mxCell id="tIVWCYKLZqsYIikExzFE-28" value="ADMIN" style="html=1;dashed=0;whiteSpace=wrap;" parent="1" vertex="1">
          <mxGeometry x="161" y="200" width="80" height="40" as="geometry" />
        </mxCell>
        <mxCell id="tIVWCYKLZqsYIikExzFE-34" style="edgeStyle=orthogonalEdgeStyle;rounded=0;orthogonalLoop=1;jettySize=auto;html=1;entryX=0;entryY=0.5;entryDx=0;entryDy=0;" parent="1" source="tIVWCYKLZqsYIikExzFE-29" target="tIVWCYKLZqsYIikExzFE-31" edge="1">
          <mxGeometry relative="1" as="geometry" />
        </mxCell>
        <mxCell id="tIVWCYKLZqsYIikExzFE-29" value="USER" style="html=1;dashed=0;whiteSpace=wrap;" parent="1" vertex="1">
          <mxGeometry x="161" y="610" width="80" height="40" as="geometry" />
        </mxCell>
        <mxCell id="tIVWCYKLZqsYIikExzFE-33" style="edgeStyle=orthogonalEdgeStyle;rounded=0;orthogonalLoop=1;jettySize=auto;html=1;entryX=0.5;entryY=0;entryDx=0;entryDy=0;" parent="1" source="tIVWCYKLZqsYIikExzFE-30" target="tIVWCYKLZqsYIikExzFE-31" edge="1">
          <mxGeometry relative="1" as="geometry" />
        </mxCell>
        <mxCell id="tIVWCYKLZqsYIikExzFE-30" value="LOGIN" style="shape=ellipse;html=1;dashed=0;whiteSpace=wrap;aspect=fixed;perimeter=ellipsePerimeter;" parent="1" vertex="1">
          <mxGeometry x="291" y="180" width="80" height="80" as="geometry" />
        </mxCell>
        <mxCell id="bFc0XCjP9rvw4XPcY3cU-13" style="edgeStyle=orthogonalEdgeStyle;rounded=0;orthogonalLoop=1;jettySize=auto;html=1;entryX=0;entryY=0.5;entryDx=0;entryDy=0;" parent="1" source="tIVWCYKLZqsYIikExzFE-31" target="bFc0XCjP9rvw4XPcY3cU-12" edge="1">
          <mxGeometry relative="1" as="geometry" />
        </mxCell>
        <mxCell id="bFc0XCjP9rvw4XPcY3cU-14" value="melihat produk" style="edgeLabel;html=1;align=center;verticalAlign=middle;resizable=0;points=[];" parent="bFc0XCjP9rvw4XPcY3cU-13" vertex="1" connectable="0">
          <mxGeometry x="-0.2741" y="1" relative="1" as="geometry">
            <mxPoint x="11" y="1" as="offset" />
          </mxGeometry>
        </mxCell>
        <mxCell id="tIVWCYKLZqsYIikExzFE-31" value="USER" style="shape=ellipse;html=1;dashed=0;whiteSpace=wrap;aspect=fixed;perimeter=ellipsePerimeter;" parent="1" vertex="1">
          <mxGeometry x="291" y="590" width="80" height="80" as="geometry" />
        </mxCell>
        <mxCell id="tIVWCYKLZqsYIikExzFE-35" value="login" style="text;html=1;align=center;verticalAlign=middle;resizable=0;points=[];autosize=1;strokeColor=none;fillColor=none;" parent="1" vertex="1">
          <mxGeometry x="411" y="200" width="50" height="30" as="geometry" />
        </mxCell>
        <mxCell id="tIVWCYKLZqsYIikExzFE-36" style="edgeStyle=orthogonalEdgeStyle;rounded=0;orthogonalLoop=1;jettySize=auto;html=1;entryX=0.03;entryY=0.643;entryDx=0;entryDy=0;entryPerimeter=0;" parent="1" source="tIVWCYKLZqsYIikExzFE-30" target="tIVWCYKLZqsYIikExzFE-35" edge="1">
          <mxGeometry relative="1" as="geometry" />
        </mxCell>
        <mxCell id="tIVWCYKLZqsYIikExzFE-38" value="" style="endArrow=classic;html=1;rounded=0;exitX=1;exitY=1;exitDx=0;exitDy=0;entryX=0;entryY=0;entryDx=13.184999999999999;entryDy=13.185000000000002;entryPerimeter=0;" parent="1" source="tIVWCYKLZqsYIikExzFE-30" target="tIVWCYKLZqsYIikExzFE-40" edge="1">
          <mxGeometry width="50" height="50" relative="1" as="geometry">
            <mxPoint x="381" y="310" as="sourcePoint" />
            <mxPoint x="431" y="260" as="targetPoint" />
          </mxGeometry>
        </mxCell>
        <mxCell id="tIVWCYKLZqsYIikExzFE-42" value="kelola data" style="edgeLabel;html=1;align=center;verticalAlign=middle;resizable=0;points=[];rotation=30;" parent="tIVWCYKLZqsYIikExzFE-38" vertex="1" connectable="0">
          <mxGeometry x="0.6012" y="-3" relative="1" as="geometry">
            <mxPoint x="-48" y="-30" as="offset" />
          </mxGeometry>
        </mxCell>
        <mxCell id="bFc0XCjP9rvw4XPcY3cU-9" style="edgeStyle=orthogonalEdgeStyle;rounded=0;orthogonalLoop=1;jettySize=auto;html=1;entryX=0;entryY=0.5;entryDx=0;entryDy=0;" parent="1" source="tIVWCYKLZqsYIikExzFE-40" target="bFc0XCjP9rvw4XPcY3cU-5" edge="1">
          <mxGeometry relative="1" as="geometry" />
        </mxCell>
        <mxCell id="bFc0XCjP9rvw4XPcY3cU-21" style="edgeStyle=orthogonalEdgeStyle;rounded=0;orthogonalLoop=1;jettySize=auto;html=1;entryX=0.497;entryY=0.028;entryDx=0;entryDy=0;entryPerimeter=0;" parent="1" source="tIVWCYKLZqsYIikExzFE-40" target="bFc0XCjP9rvw4XPcY3cU-22" edge="1">
          <mxGeometry relative="1" as="geometry">
            <mxPoint x="561" y="480" as="targetPoint" />
          </mxGeometry>
        </mxCell>
        <mxCell id="tIVWCYKLZqsYIikExzFE-40" value="pengelagaan&lt;div&gt;data&lt;/div&gt;" style="html=1;dashed=0;whiteSpace=wrap;shape=mxgraph.dfd.start" parent="1" vertex="1">
          <mxGeometry x="501" y="320" width="120" height="90" as="geometry" />
        </mxCell>
        <mxCell id="bFc0XCjP9rvw4XPcY3cU-1" value="" style="endArrow=classic;startArrow=classic;html=1;rounded=0;exitX=1;exitY=0;exitDx=0;exitDy=0;entryX=0;entryY=0;entryDx=13.184999999999999;entryDy=76.815;entryPerimeter=0;" parent="1" source="tIVWCYKLZqsYIikExzFE-31" target="tIVWCYKLZqsYIikExzFE-40" edge="1">
          <mxGeometry width="50" height="50" relative="1" as="geometry">
            <mxPoint x="431" y="550" as="sourcePoint" />
            <mxPoint x="481" y="500" as="targetPoint" />
          </mxGeometry>
        </mxCell>
        <mxCell id="bFc0XCjP9rvw4XPcY3cU-2" value="data produk" style="rounded=0;whiteSpace=wrap;html=1;" parent="1" vertex="1">
          <mxGeometry x="411" y="470" width="80" height="30" as="geometry" />
        </mxCell>
        <mxCell id="bFc0XCjP9rvw4XPcY3cU-3" value="dashboard" style="rounded=0;whiteSpace=wrap;html=1;" parent="1" vertex="1">
          <mxGeometry x="701" y="240" width="90" height="40" as="geometry" />
        </mxCell>
        <mxCell id="bFc0XCjP9rvw4XPcY3cU-4" value="" style="endArrow=none;html=1;rounded=0;entryX=0;entryY=0.5;entryDx=0;entryDy=0;exitX=0;exitY=0;exitDx=106.815;exitDy=13.185000000000002;exitPerimeter=0;" parent="1" source="tIVWCYKLZqsYIikExzFE-40" target="bFc0XCjP9rvw4XPcY3cU-3" edge="1">
          <mxGeometry width="50" height="50" relative="1" as="geometry">
            <mxPoint x="571" y="275" as="sourcePoint" />
            <mxPoint x="621" y="115" as="targetPoint" />
          </mxGeometry>
        </mxCell>
        <mxCell id="bFc0XCjP9rvw4XPcY3cU-5" value="data produk" style="swimlane;childLayout=stackLayout;horizontal=1;startSize=50;horizontalStack=0;resizeParent=1;resizeParentMax=0;resizeLast=0;collapsible=0;marginBottom=0;swimlaneFillColor=#000000;rotation=0;verticalAlign=middle;" parent="1" vertex="1">
          <mxGeometry x="681" y="330" width="70" height="70" as="geometry" />
        </mxCell>
        <mxCell id="bFc0XCjP9rvw4XPcY3cU-6" value="data &#xa;transaksi" style="swimlane;childLayout=stackLayout;horizontal=1;startSize=50;horizontalStack=0;resizeParent=1;resizeParentMax=0;resizeLast=0;collapsible=0;marginBottom=0;swimlaneFillColor=#000000;rotation=0;verticalAlign=middle;" parent="1" vertex="1">
          <mxGeometry x="771" y="330" width="70" height="70" as="geometry" />
        </mxCell>
        <mxCell id="bFc0XCjP9rvw4XPcY3cU-19" style="edgeStyle=orthogonalEdgeStyle;rounded=0;orthogonalLoop=1;jettySize=auto;html=1;entryX=0.5;entryY=0;entryDx=0;entryDy=0;" parent="1" source="bFc0XCjP9rvw4XPcY3cU-7" target="bFc0XCjP9rvw4XPcY3cU-17" edge="1">
          <mxGeometry relative="1" as="geometry" />
        </mxCell>
        <mxCell id="bFc0XCjP9rvw4XPcY3cU-7" value="data &#xa;transaksi" style="swimlane;childLayout=stackLayout;horizontal=1;startSize=50;horizontalStack=0;resizeParent=1;resizeParentMax=0;resizeLast=0;collapsible=0;marginBottom=0;swimlaneFillColor=#000000;rotation=0;verticalAlign=middle;" parent="1" vertex="1">
          <mxGeometry x="861" y="330" width="70" height="70" as="geometry" />
        </mxCell>
        <mxCell id="bFc0XCjP9rvw4XPcY3cU-11" value="" style="endArrow=classic;html=1;rounded=0;entryX=0;entryY=0.75;entryDx=0;entryDy=0;exitX=0.983;exitY=0.656;exitDx=0;exitDy=0;exitPerimeter=0;" parent="1" source="tIVWCYKLZqsYIikExzFE-40" target="bFc0XCjP9rvw4XPcY3cU-5" edge="1">
          <mxGeometry width="50" height="50" relative="1" as="geometry">
            <mxPoint x="601" y="450" as="sourcePoint" />
            <mxPoint x="651" y="400" as="targetPoint" />
          </mxGeometry>
        </mxCell>
        <mxCell id="bFc0XCjP9rvw4XPcY3cU-16" style="edgeStyle=orthogonalEdgeStyle;rounded=0;orthogonalLoop=1;jettySize=auto;html=1;entryX=0;entryY=0.5;entryDx=0;entryDy=0;" parent="1" source="bFc0XCjP9rvw4XPcY3cU-12" target="bFc0XCjP9rvw4XPcY3cU-15" edge="1">
          <mxGeometry relative="1" as="geometry" />
        </mxCell>
        <mxCell id="bFc0XCjP9rvw4XPcY3cU-26" value="traporan" style="edgeLabel;html=1;align=center;verticalAlign=middle;resizable=0;points=[];" parent="bFc0XCjP9rvw4XPcY3cU-16" vertex="1" connectable="0">
          <mxGeometry x="-0.0809" y="-3" relative="1" as="geometry">
            <mxPoint y="-3" as="offset" />
          </mxGeometry>
        </mxCell>
        <mxCell id="bFc0XCjP9rvw4XPcY3cU-12" value="pembayaran" style="ellipse;whiteSpace=wrap;html=1;" parent="1" vertex="1">
          <mxGeometry x="506" y="595" width="110" height="70" as="geometry" />
        </mxCell>
        <mxCell id="bFc0XCjP9rvw4XPcY3cU-18" style="edgeStyle=orthogonalEdgeStyle;rounded=0;orthogonalLoop=1;jettySize=auto;html=1;" parent="1" source="bFc0XCjP9rvw4XPcY3cU-15" target="bFc0XCjP9rvw4XPcY3cU-17" edge="1">
          <mxGeometry relative="1" as="geometry" />
        </mxCell>
        <mxCell id="bFc0XCjP9rvw4XPcY3cU-15" value="laporan" style="ellipse;whiteSpace=wrap;html=1;" parent="1" vertex="1">
          <mxGeometry x="711" y="600" width="100" height="60" as="geometry" />
        </mxCell>
        <mxCell id="bFc0XCjP9rvw4XPcY3cU-17" value="file excel" style="rounded=0;whiteSpace=wrap;html=1;" parent="1" vertex="1">
          <mxGeometry x="853.5" y="610" width="85" height="40" as="geometry" />
        </mxCell>
        <mxCell id="bFc0XCjP9rvw4XPcY3cU-22" value="pemesanan produk" style="text;html=1;align=center;verticalAlign=middle;resizable=0;points=[];autosize=1;strokeColor=none;fillColor=none;" parent="1" vertex="1">
          <mxGeometry x="496" y="470" width="130" height="30" as="geometry" />
        </mxCell>
        <mxCell id="bFc0XCjP9rvw4XPcY3cU-23" value="" style="endArrow=classic;html=1;rounded=0;exitX=0;exitY=0;exitDx=106.815;exitDy=76.815;exitPerimeter=0;entryX=0.5;entryY=0;entryDx=0;entryDy=0;" parent="1" source="tIVWCYKLZqsYIikExzFE-40" target="bFc0XCjP9rvw4XPcY3cU-15" edge="1">
          <mxGeometry width="50" height="50" relative="1" as="geometry">
            <mxPoint x="631" y="490" as="sourcePoint" />
            <mxPoint x="681" y="440" as="targetPoint" />
          </mxGeometry>
        </mxCell>
        <mxCell id="bFc0XCjP9rvw4XPcY3cU-27" value="transaksi" style="rounded=0;whiteSpace=wrap;html=1;rotation=52;" parent="1" vertex="1">
          <mxGeometry x="661" y="490" width="60" height="20" as="geometry" />
        </mxCell>
      </root>
    </mxGraphModel>
  </diagram>
</mxfile>
